# xmcd CD database file
#
# Track frame offsets:
#	150
#	30787
#	54410
#	78094
#	133141
#	155407
#	194236
#	223275
#	234548
#	245446
#	259943
#	274127
#	289988
#
# Disc length: 4239 seconds
#
# Revision: 3
# Processed by: cddbd v1.4PL0 Copyright (c) Steve Scherf et al.
# Submitted via: CDex 1.50Beta7
#
DISCID=c2108d0d
DTITLE=Sonny Rollins - Prestige (1953-1956)
DYEAR=1900
DGENRE=Jazz
TTITLE0=St Thomas
TTITLE1=Strode rode
TTITLE2=The way you look tonight
TTITLE3=Tenor madness
TTITLE4=Paradox
TTITLE5=Valse hot
TTITLE6=Solid
TTITLE7=Count your blessings
TTITLE8=Mambo bounce
TTITLE9=Newk's fadeaway
TTITLE10=With a song in my heart
TTITLE11=No moe
TTITLE12=When your lover has gone
EXTD=
EXTT0=
EXTT1=
EXTT2=
EXTT3=
EXTT4=
EXTT5=
EXTT6=
EXTT7=
EXTT8=
EXTT9=
EXTT10=
EXTT11=
EXTT12=
PLAYORDER=
